# xmcd
#
# Track frame offsets:
#	150
#	22353
#	36161
#	53090
#	73236
#	92081
#	113966
#	131982
#	149511
#	171221
#
# Disc length: 2720 seconds
#
# Revision: 0
# Processed by: cddbd v1.5.2PL0 Copyright (c) Steve Scherf et al.
# Submitted via: audiograbber 1.83.01
#
DISCID=9d0a9e0a
DTITLE=高雄市莊敬國小 - 細人仔學客語六年級客家語讀本
DYEAR=1900
DGENRE=
TTITLE0=逛街 - 軌段  1
TTITLE1=客家詩選 - 軌段  2
TTITLE2=榕樹下 - 軌段  3
TTITLE3=六堆的由來 - 軌段  4
TTITLE4=割禾仔 - 軌段  5
TTITLE5=客家文學家鍾理和先生 - 軌段  6
TTITLE6=掛紙（掃墓） - 軌段  7
TTITLE7=唱山歌 - 軌段  8
TTITLE8=我是客家人 - 軌段  9
TTITLE9=打嘴鼓 - 軌段 10
EXTD=
EXTT0=
EXTT1=
EXTT2=
EXTT3=
EXTT4=
EXTT5=
EXTT6=
EXTT7=
EXTT8=
EXTT9=
PLAYORDER=
